<mxfile host="app.diagrams.net" modified="2024-03-07T22:43:36.163Z" agent="Mozilla/5.0 (Macintosh; Intel Mac OS X 10_15_7) AppleWebKit/537.36 (KHTML, like Gecko) Chrome/122.0.0.0 Safari/537.36" version="23.1.6" etag="ulObpJIdMD5iGY103e0b" type="github">
  <diagram name="Page-1" id="jZ59-puYTv-ilOaDGK4a">
    <mxGraphModel>
      <root>
        <mxCell id="0" />
        <mxCell id="1" parent="0" />
      </root>
    </mxGraphModel>
  </diagram>
</mxfile>
